<svg width="14" height="16" viewBox="0 0 14 16" fill="none" xmlns="http://www.w3.org/2000/svg">
<path d="M12.625 1.73535H1.375C1.27554 1.73535 1.18016 1.69584 1.10983 1.62552C1.03951 1.55519 1 1.45981 1 1.36035V0.610352C0.999958 0.484402 1.0126 0.358768 1.03773 0.235352H0.25V15.9854H13.75V0.235352H12.9625C12.9876 0.358768 13.0003 0.484402 13.0002 0.610352V1.36035C13.0002 1.40962 12.9905 1.4584 12.9717 1.50391C12.9528 1.54942 12.9252 1.59077 12.8903 1.6256C12.8555 1.66042 12.8141 1.68804 12.7686 1.70687C12.7231 1.72571 12.6743 1.73538 12.625 1.73535ZM2.125 13.7354C2.05083 13.7354 1.97833 13.7134 1.91666 13.6722C1.85499 13.6309 1.80693 13.5724 1.77855 13.5039C1.75016 13.4353 1.74274 13.3599 1.75721 13.2872C1.77167 13.2144 1.80739 13.1476 1.85983 13.0952C1.91228 13.0427 1.9791 13.007 2.05184 12.9926C2.12458 12.9781 2.19998 12.9855 2.26851 13.0139C2.33703 13.0423 2.3956 13.0903 2.4368 13.152C2.47801 13.2137 2.5 13.2862 2.5 13.3604C2.5 13.4598 2.46049 13.5552 2.39017 13.6255C2.31984 13.6958 2.22446 13.7354 2.125 13.7354ZM2.125 11.4854C2.05083 11.4854 1.97833 11.4634 1.91666 11.4222C1.85499 11.3809 1.80693 11.3224 1.77855 11.2539C1.75016 11.1853 1.74274 11.1099 1.75721 11.0372C1.77167 10.9644 1.80739 10.8976 1.85983 10.8452C1.91228 10.7927 1.9791 10.757 2.05184 10.7426C2.12458 10.7281 2.19998 10.7355 2.26851 10.7639C2.33703 10.7923 2.3956 10.8403 2.4368 10.902C2.47801 10.9637 2.5 11.0362 2.5 11.1104C2.5 11.2098 2.46049 11.3052 2.39017 11.3755C2.31984 11.4458 2.22446 11.4854 2.125 11.4854ZM2.125 9.23535C2.05083 9.23535 1.97833 9.21336 1.91666 9.17215C1.85499 9.13095 1.80693 9.07238 1.77855 9.00386C1.75016 8.93534 1.74274 8.85994 1.75721 8.78719C1.77167 8.71445 1.80739 8.64763 1.85983 8.59519C1.91228 8.54274 1.9791 8.50703 2.05184 8.49256C2.12458 8.47809 2.19998 8.48551 2.26851 8.5139C2.33703 8.54228 2.3956 8.59034 2.4368 8.65201C2.47801 8.71368 2.5 8.78618 2.5 8.86035C2.5 8.95981 2.46049 9.05519 2.39017 9.12552C2.31984 9.19584 2.22446 9.23535 2.125 9.23535ZM2.125 6.98535C2.05083 6.98535 1.97833 6.96336 1.91666 6.92215C1.85499 6.88095 1.80693 6.82238 1.77855 6.75386C1.75016 6.68534 1.74274 6.60994 1.75721 6.53719C1.77167 6.46445 1.80739 6.39763 1.85983 6.34519C1.91228 6.29274 1.9791 6.25703 2.05184 6.24256C2.12458 6.22809 2.19998 6.23551 2.26851 6.2639C2.33703 6.29228 2.3956 6.34034 2.4368 6.40201C2.47801 6.46368 2.5 6.53618 2.5 6.61035C2.5 6.70981 2.46049 6.80519 2.39017 6.87552C2.31984 6.94584 2.22446 6.98535 2.125 6.98535ZM2.125 4.73535C2.05083 4.73535 1.97833 4.71336 1.91666 4.67215C1.85499 4.63095 1.80693 4.57238 1.77855 4.50386C1.75016 4.43534 1.74274 4.35994 1.75721 4.28719C1.77167 4.21445 1.80739 4.14763 1.85983 4.09519C1.91228 4.04274 1.9791 4.00703 2.05184 3.99256C2.12458 3.97809 2.19998 3.98551 2.26851 4.0139C2.33703 4.04228 2.3956 4.09034 2.4368 4.15201C2.47801 4.21368 2.5 4.28618 2.5 4.36035C2.5 4.45981 2.46049 4.55519 2.39017 4.62552C2.31984 4.69584 2.22446 4.73535 2.125 4.73535ZM11.875 13.7354H3.625C3.52554 13.7354 3.43016 13.6958 3.35983 13.6255C3.28951 13.5552 3.25 13.4598 3.25 13.3604C3.25 13.2609 3.28951 13.1655 3.35983 13.0952C3.43016 13.0249 3.52554 12.9854 3.625 12.9854H11.875C11.9745 12.9854 12.0698 13.0249 12.1402 13.0952C12.2105 13.1655 12.25 13.2609 12.25 13.3604C12.25 13.4598 12.2105 13.5552 12.1402 13.6255C12.0698 13.6958 11.9745 13.7354 11.875 13.7354ZM11.875 11.4854H3.625C3.52554 11.4854 3.43016 11.4458 3.35983 11.3755C3.28951 11.3052 3.25 11.2098 3.25 11.1104C3.25 11.0109 3.28951 10.9155 3.35983 10.8452C3.43016 10.7749 3.52554 10.7354 3.625 10.7354H11.875C11.9745 10.7354 12.0698 10.7749 12.1402 10.8452C12.2105 10.9155 12.25 11.0109 12.25 11.1104C12.25 11.2098 12.2105 11.3052 12.1402 11.3755C12.0698 11.4458 11.9745 11.4854 11.875 11.4854ZM11.875 9.23535H3.625C3.52554 9.23535 3.43016 9.19584 3.35983 9.12552C3.28951 9.05519 3.25 8.95981 3.25 8.86035C3.25 8.7609 3.28951 8.66551 3.35983 8.59519C3.43016 8.52486 3.52554 8.48535 3.625 8.48535H11.875C11.9745 8.48535 12.0698 8.52486 12.1402 8.59519C12.2105 8.66551 12.25 8.7609 12.25 8.86035C12.25 8.95981 12.2105 9.05519 12.1402 9.12552C12.0698 9.19584 11.9745 9.23535 11.875 9.23535ZM11.875 6.98535H3.625C3.52554 6.98535 3.43016 6.94584 3.35983 6.87552C3.28951 6.80519 3.25 6.70981 3.25 6.61035C3.25 6.5109 3.28951 6.41551 3.35983 6.34519C3.43016 6.27486 3.52554 6.23535 3.625 6.23535H11.875C11.9745 6.23535 12.0698 6.27486 12.1402 6.34519C12.2105 6.41551 12.25 6.5109 12.25 6.61035C12.25 6.70981 12.2105 6.80519 12.1402 6.87552C12.0698 6.94584 11.9745 6.98535 11.875 6.98535ZM11.875 4.73535H3.625C3.52554 4.73535 3.43016 4.69584 3.35983 4.62552C3.28951 4.55519 3.25 4.45981 3.25 4.36035C3.25 4.2609 3.28951 4.16551 3.35983 4.09519C3.43016 4.02486 3.52554 3.98535 3.625 3.98535H11.875C11.9745 3.98535 12.0698 4.02486 12.1402 4.09519C12.2105 4.16551 12.25 4.2609 12.25 4.36035C12.25 4.45981 12.2105 4.55519 12.1402 4.62552C12.0698 4.69584 11.9745 4.73535 11.875 4.73535Z" fill="#ADADAD"/>
</svg>
