<svg width="20" height="19" viewBox="0 0 20 19" fill="none" xmlns="http://www.w3.org/2000/svg">
<path d="M19.999 6C19.9991 5.81852 19.9497 5.64045 19.856 5.485L17.147 0.97C16.9686 0.674841 16.7171 0.430573 16.417 0.260692C16.1168 0.0908116 15.7779 0.00103553 15.433 0H4.56502C3.86702 0 3.21002 0.372 2.85102 0.971L0.142024 5.485C0.048373 5.64045 -0.00107045 5.81852 -0.000976429 6C-0.000976429 7.005 0.385024 7.914 0.999024 8.618V18C0.999024 18.2652 1.10438 18.5196 1.29192 18.7071C1.47945 18.8946 1.73381 19 1.99902 19H9.99902C10.2642 19 10.5186 18.8946 10.7061 18.7071C10.8937 18.5196 10.999 18.2652 10.999 18V13H14.999V18C14.999 18.2652 15.1044 18.5196 15.2919 18.7071C15.4795 18.8946 15.7338 19 15.999 19H17.999C18.2642 19 18.5186 18.8946 18.7061 18.7071C18.8937 18.5196 18.999 18.2652 18.999 18V8.618C19.613 7.914 19.999 7.005 19.999 6ZM17.983 6.251C17.9215 6.73391 17.6861 7.17785 17.321 7.49977C16.9558 7.82169 16.4858 7.99953 15.999 8C14.896 8 13.999 7.103 13.999 6C13.999 5.932 13.974 5.872 13.96 5.808L13.98 5.804L13.219 2H15.433L17.983 6.251ZM8.00602 6.065L8.81802 2H11.179L11.992 6.065C11.957 7.138 11.079 8 9.99902 8C8.91902 8 8.04102 7.138 8.00602 6.065ZM4.56502 2H6.77902L6.01902 5.804L6.03902 5.808C6.02402 5.872 5.99902 5.932 5.99902 6C5.99902 7.103 5.10202 8 3.99902 8C3.51221 7.99953 3.04226 7.82169 2.67708 7.49977C2.31191 7.17785 2.07654 6.73391 2.01502 6.251L4.56502 2ZM7.99902 14H3.99902V11H7.99902V14Z" fill="#F29100"/>
</svg>
